<svg width="117" height="35" viewBox="0 0 117 35" fill="none" xmlns="http://www.w3.org/2000/svg">
<path d="M49.3268 28.4755L47.4295 23.0124H39.7404L37.9097 28.4755H33.3828L41.1052 6.4898C41.8153 6.17889 42.7029 6.02344 43.768 6.02344C45.4101 6.02344 46.4531 6.71188 46.8969 8.08876L54.0534 28.4755H49.3268ZM43.6349 10.1874L40.6059 19.6812H46.5641L43.6349 10.1874ZM64.0075 25.6107C64.762 25.6107 65.4721 25.4664 66.1378 25.1777C66.8035 24.8668 67.3251 24.4781 67.7022 24.0117C67.9685 24.3005 68.2238 24.7002 68.4678 25.211C68.7119 25.7217 68.834 26.1437 68.834 26.4768C68.834 26.9875 68.601 27.4206 68.135 27.776C67.0255 28.6198 65.4388 29.0418 63.3751 29.0418C61.733 29.0418 60.3017 28.7087 59.0812 28.0425C57.8606 27.354 56.9398 26.3879 56.3184 25.1443C55.697 23.8785 55.3864 22.3462 55.3864 20.5473C55.3864 18.7707 55.7193 17.2717 56.385 16.0503C57.073 14.8288 58.0383 13.8961 59.2809 13.2521C60.5235 12.5858 61.8882 12.2527 63.3751 12.2527C64.2627 12.2527 65.0949 12.3527 65.8715 12.5525C66.6481 12.7302 67.3028 12.9967 67.8354 13.352C68.2571 13.6185 68.5454 13.8739 68.7008 14.1182C68.8783 14.3625 68.9671 14.6512 68.9671 14.9843C68.9671 15.2952 68.8672 15.6838 68.6675 16.1502C68.4678 16.5943 68.2126 17.0052 67.902 17.3827C67.4582 16.8941 66.8811 16.4944 66.1711 16.1835C65.4831 15.8504 64.7731 15.6838 64.0408 15.6838C62.7093 15.6838 61.6997 16.0947 61.0118 16.9164C60.3238 17.7158 59.9799 18.904 59.9799 20.4807C59.9799 22.1463 60.3127 23.4232 60.9785 24.3116C61.6664 25.1777 62.6761 25.6107 64.0075 25.6107ZM86.2769 20.514C86.2769 22.2684 85.955 23.7896 85.3116 25.0777C84.6902 26.3658 83.7915 27.3429 82.6154 28.0092C81.4614 28.6531 80.0634 28.9752 78.4214 28.9752C75.936 28.9752 74.0054 28.2313 72.6296 26.7433C71.2759 25.2553 70.5992 23.2123 70.5992 20.614C70.5992 18.9262 70.932 17.4493 71.5977 16.1835C72.2857 14.8954 73.2177 13.9183 74.3938 13.2521C75.5921 12.5858 76.979 12.2527 78.5545 12.2527C81.0399 12.2527 82.9483 12.9856 84.2797 14.4513C85.6111 15.8948 86.2769 17.9157 86.2769 20.514ZM81.7167 20.5473C81.7167 17.3272 80.6405 15.7171 78.4879 15.7171C77.4005 15.7171 76.5684 16.1502 75.9915 17.0163C75.4146 17.8824 75.1261 19.0705 75.1261 20.5806C75.1261 22.1796 75.4034 23.4121 75.9582 24.2782C76.5351 25.1443 77.3562 25.5774 78.4214 25.5774C80.6183 25.5774 81.7167 23.9008 81.7167 20.5473ZM94.1854 14.2847C94.607 13.6851 95.1395 13.1965 95.7832 12.819C96.4489 12.4415 97.1367 12.2527 97.8469 12.2527C98.6235 12.2527 99.2337 12.3971 99.6776 12.6858C100.144 12.9523 100.377 13.3409 100.377 13.8517C100.377 14.1182 100.321 14.4513 100.21 14.851C100.121 15.2286 99.9882 15.6283 99.8108 16.0503C99.6554 16.45 99.4779 16.8164 99.2782 17.1495C98.8565 16.7942 98.4571 16.5499 98.0799 16.4167C97.7025 16.2612 97.281 16.1835 96.815 16.1835C96.1493 16.1835 95.5722 16.3834 95.0842 16.7831C94.6182 17.1829 94.3852 17.6603 94.3852 18.2155V28.4755H89.8583V12.7191L90.2577 12.6525C90.6126 12.6081 90.9788 12.5858 91.3561 12.5858C92.1105 12.5858 92.7319 12.7302 93.2201 13.0189C93.7305 13.3076 94.0523 13.7295 94.1854 14.2847ZM107.063 28.4755H102.503V12.7191L102.902 12.6525C103.257 12.6081 103.624 12.5858 104.001 12.5858C105.643 12.5858 106.586 13.1632 106.83 14.318C107.851 12.9412 109.482 12.2527 111.723 12.2527C113.143 12.2527 114.264 12.5303 115.085 13.0855C115.906 13.6407 116.439 14.4957 116.683 15.6505C116.86 16.4278 116.949 17.5715 116.949 19.0816V28.4755H112.422V19.2815C112.422 18.2377 112.345 17.5049 112.189 17.0829C112.056 16.661 111.812 16.3612 111.457 16.1835C111.124 15.9836 110.658 15.8837 110.059 15.8837C109.216 15.8837 108.506 16.0614 107.929 16.4167C107.352 16.7498 107.063 17.1718 107.063 17.6825V28.4755Z" fill="#ffffff"/>
<g clip-path="url(#clip0_5327:342713)">
<path fill-rule="evenodd" clip-rule="evenodd" d="M15.2745 3.86764C26.4489 4.39922 26.3904 10.9915 26.3603 11.6248C26.3283 12.2977 25.5597 13.5558 22.4534 13.5558H2.91889C2.91889 13.5558 0.363393 13.5207 0.00472871 11.6248C-0.120871 9.1767 2.21043 4.27196 12.4206 3.86116C12.545 3.35856 12.7435 2.9061 12.977 2.50917C13.4407 1.72104 14.0466 1.14125 14.5125 0.76739C14.7494 0.577288 14.9608 0.431828 15.1173 0.331471C15.1959 0.281109 15.3104 0.212989 15.3104 0.212989C15.3349 0.198677 15.3713 0.178148 15.3713 0.178148L15.3918 0.166799L15.3994 0.162638L15.4025 0.160937C15.4025 0.160937 14.2446 0.892822 15.4052 0.159488C16.0548 -0.189055 16.8651 0.0526776 17.2151 0.699413C17.564 1.34397 17.3241 2.14755 16.6794 2.49798L16.662 2.50801C16.6426 2.51932 16.6089 2.53948 16.564 2.5683C16.4735 2.62628 16.3409 2.71712 16.1893 2.8388C15.8781 3.0885 15.5295 3.43423 15.2825 3.85394C15.2799 3.8585 15.2772 3.86305 15.2745 3.86764ZM4.0024 26.0706C1.7858 22.5638 1.98341 17.4684 2.35928 15.359H23.8809L23.8863 15.4079C24.2704 18.8788 24.5797 21.6732 22.4632 25.7411C20.3369 29.828 15.9552 32.0033 15.1498 32.2999C14.6566 32.4816 14.2915 32.8463 14.0041 33.1334C13.8222 33.3153 13.6714 33.4659 13.5389 33.5195C13.4586 33.5519 13.406 33.5802 13.3663 33.6017C13.2443 33.6677 13.2427 33.6686 12.9268 33.5195C12.7657 33.4434 12.638 33.3088 12.485 33.1476C12.2401 32.8898 11.9305 32.5636 11.3159 32.2999L11.2248 32.2611C10.1167 31.7887 6.69457 30.3299 4.0024 26.0706Z" fill="#ffffff"/>
</g>
<defs>
<clipPath id="clip0_5327:342713">
<rect width="26.3636" height="35" fill="white"/>
</clipPath>
</defs>
</svg>
